<svg id="Capa_1" enable-background="new 0 0 512 512" height="512" viewBox="0 0 512 512" width="512" xmlns="http://www.w3.org/2000/svg"><g><path d="m255.99 357.68 22.784 92.847-22.784 61.473h-13.711l-74.234-47.79-19.569-79.96c10.231-9.67 21.876-18.07 34.755-24.84 2.167-1.13 4.574-1.73 7.021-1.73z" fill="#f2e6e9"/><path d="m363.474 384.28-9.328 78.96-84.445 48.76h-13.711v-154.32l65.758-.01c2.447 0 4.865.59 7.021 1.73 12.668 6.66 24.324 15.02 34.705 24.88z" fill="#e6cfd7"/><path d="m242.279 512h-127.234c-8.315 0-15.045-6.72-15.045-15 0-43.34 17.904-83.81 48.476-112.75z" fill="#f66"/><path d="m412 497c0 8.28-6.74 15-15.045 15h-127.254l93.772-127.72c.963.9 1.906 1.82 2.839 2.75 29.459 29.37 45.688 68.43 45.688 109.97z" fill="#e62e6b"/><g><path d="m410.649 187.653c0 20.699-16.895 37.543-37.657 37.543h-25.105c-6.937 0-12.552-5.606-12.552-12.514v-50.058c0-6.916 5.615-12.514 12.552-12.514h25.105c20.762 0 37.657 16.844 37.657 37.543z" fill="#ffa68c"/></g><g><path d="m101.331 187.653c0 20.699 16.895 37.543 37.657 37.543h25.105c6.937 0 12.552-5.606 12.552-12.514v-50.058c0-6.916-5.615-12.514-12.552-12.514h-25.105c-20.762 0-37.657 16.844-37.657 37.543z" fill="#ffbda9"/></g><path d="m255.99 115.11 22.783 69.574-22.783 73.446h-64.775l-33.371-43.32v-74.7z" fill="#ffccbd"/><path d="m354.146 140.11-.02 74.7-33.351 43.32h-64.785v-143.02h.01z" fill="#ffbda9"/><path d="m231.035 243.13c-13.35 4.82-28.195 3.14-39.82-5l-33.371-23.32-13.511 31.92c-3.009 7.15-5.316 14.56-6.831 22.11-1.525 7.57-2.307 15.28-2.307 23.04 0 41.77 22.478 80.33 58.897 100.98l54.444 30.9c2.307 1.31 4.885 1.97 7.452 1.96l38.827-108.198-38.825-78.772c-8.456 0-16.901 1.46-24.955 4.38z" fill="#804055"/><g><path d="m255.99 285.74 17.055 15.418-17.055 14.532c-10.291 0-20.572-3.87-29.158-11.62-6.159-5.56-6.64-15.04-1.063-21.18 5.577-6.15 15.085-6.62 21.254-1.07 2.889 2.6 5.928 3.91 8.967 3.92z" fill="#f66"/></g><path d="m376.794 291.88c0 41.77-22.498 80.33-58.897 100.98l-54.474 30.9c-2.307 1.31-4.865 1.96-7.432 1.96v-186.97c8.455 0 16.911 1.45 24.965 4.36 13.35 4.84 28.195 3.16 39.82-4.98l33.35-23.32 13.521 31.92c6.038 14.28 9.147 29.63 9.147 45.15z" fill="#66283d"/><path d="m285.148 304.08c-8.576 7.74-18.867 11.61-29.148 11.61h-.01v-29.95c3.039.01 6.078-1.29 8.967-3.9 6.169-5.56 15.677-5.09 21.254 1.06 5.577 6.14 5.095 15.63-1.063 21.18z" fill="#e62e6b"/><g><g><path d="m152.217 120.11 14.73 15.528h97.22l8.774-15.528 10-17.71-26.951-102.4c-5.607 0-10.742 3.11-13.34 8.06l-30.622 58.52-50.011-29.49c-5.005-2.95-11.264-2.76-16.078.47-4.814 3.24-7.332 8.96-6.459 14.68z" fill="#fd3"/></g><path d="m341.35 135.638 18.423-15.528 12.728-67.87c.873-5.73-1.645-11.44-6.459-14.68-4.825-3.23-11.073-3.42-16.078-.47l-50.011 29.49-30.623-58.52c-2.598-4.95-7.733-8.06-13.34-8.06v135.638z" fill="#fb3"/></g><path d="m256 120.11 8.167 15.528-8.167 14.472h-98.156l-5.627-30z" fill="#fb3"/><path d="m359.773 120.11-5.627 30h-98.146v-30z" fill="#f93"/></g></svg>