<svg height="512" viewBox="0 0 32 32" width="512" xmlns="http://www.w3.org/2000/svg"><path d="m1 7c0-3.31371 2.68629-6 6-6h18c3.3137 0 6 2.68629 6 6v18c0 3.3137-2.6863 6-6 6h-18c-3.31371 0-6-2.6863-6-6z" fill="#fffadd"/><g fill="#ffd200"><path d="m17.5883 16.7526c-2.7015-.4605-5.5191-.0306-8.00385 1.2898-.35965.1912-.58445.5652-.58445.9725v2.4393c0 .6421.5205 1.1626 1.1626 1.1626h5.7759c-.1726-.4208-.088-.9221.2537-1.2638l1.2277-1.2277-.8221-.822c-.454-.454-.454-1.1901 0-1.6441l.5125-.5125c.1495-.1495.3097-.2808.478-.3941z"/><g fill-rule="evenodd"><path d="m15.529 8.5c-1.9262 0-3.4877 1.5615-3.4877 3.4877s1.5615 3.4877 3.4877 3.4877 3.4877-1.5615 3.4877-3.4877-1.5615-3.4877-3.4877-3.4877z"/><path d="m21.8084 16.4c-.1412-.1412-.3079-.0967-.3687-.0213l-1.096 1.3585c-.1205.1493-.3159.2162-.5026.172-.5698-.1348-1.1541.0096-1.5564.4119l-.1602.1601 2.5836 2.5837.1602-.1602c.4023-.4023.5467-.9866.4119-1.5564-.0442-.1867.0227-.3821.172-.5026l1.3585-1.096c.0754-.0608.1199-.2275-.0213-.3687zm-3.449 3.7254-1.6975 1.6975c-.1946.1945-.1946.51 0 .7046s.5101.1946.7046 0l1.6975-1.6975 1.2918 1.2918c.1946.1946.5101.1946.7047 0l.5124-.5125c.5899-.5898.8252-1.3942.7333-2.1722l1.1302-.9119c.5925-.478.5649-1.3416.0576-1.8488l-.981-.981c-.5073-.5073-1.3708-.5349-1.8488.0576l-.9119 1.1302c-.778-.092-1.5824.1434-2.1722.7333l-.5125.5124c-.1946.1946-.1946.5101 0 .7047z" fill="#fae780"/></g></g></svg>