<svg height="512" viewBox="0 0 32 32" width="512" xmlns="http://www.w3.org/2000/svg"><path d="m1 7c0-3.31371 2.68629-6 6-6h18c3.3137 0 6 2.68629 6 6v18c0 3.3137-2.6863 6-6 6h-18c-3.31371 0-6-2.6863-6-6z" fill="#fbe7e3"/><g fill="#fc573b" fill-rule="evenodd"><path d="m15.1285 8.27417c-2.1199 0-3.8385 1.71854-3.8385 3.83843 0 2.1199 1.7186 3.8385 3.8385 3.8385s3.8385-1.7186 3.8385-3.8385c0-2.11989-1.7186-3.83843-3.8385-3.83843z"/><g><path d="m21.4362 18.5475c-3.944-2.0959-8.6714-2.0959-12.6154 0-.38499.2046-.62562.6049-.62562 1.0409v2.6111c0 .6873.55716 1.2445 1.24445 1.2445h11.3778c.6873 0 1.2445-.5572 1.2445-1.2445v-2.6111c0-.436-.2407-.8363-.6257-1.0409z"/><g fill="#f9aa9d"><path d="m21.9894 13.8491c.3028 0 .5483.2455.5483.5484v.3655c0 .3029-.2455.5484-.5483.5484-.3029 0-.5484-.2455-.5484-.5484v-.3655c0-.3029.2455-.5484.5484-.5484z"/><path d="m21.9894 9.0967c-.5048 0-.9139.40918-.9139.9139 0 .3029-.2455.5484-.5484.5484-.3028 0-.5483-.2455-.5483-.5484 0-1.11041.9001-2.0106 2.0106-2.0106 1.1104 0 2.0106.90019 2.0106 2.0106 0 .9204-.6184 1.6963-1.4623 1.935v.9896c0 .3028-.2455.5483-.5483.5483-.3029 0-.5484-.2455-.5484-.5483v-1.4623c0-.3029.2455-.5484.5484-.5484.5047 0 .9139-.4091.9139-.9139 0-.50472-.4092-.9139-.9139-.9139z"/></g></g></g></svg>